<svg xmlns="http://www.w3.org/2000/svg" version="1.1" xmlns:xlink="http://www.w3.org/1999/xlink" xmlns:svgjs="http://svgjs.dev/svgjs" viewBox="0 0 1920 1080" style="overflow: hidden; height: 85vh;" class="overflow-hidden rounded-md drop-shadow-lg transition duration-300"><rect width="1920" height="1080" fill="#3b2d88"/><g clip-path="url(&quot;#SvgjsClipPath1747&quot;)"><g transform="matrix(0.8272407703894488,0.7988571260278468,-0.7988571260278468,0.8272407703894488,593.2241654246718,-655.0815499533469)"><path d="M0,-1080C-7.732265232310566,-1001.5443843409297,-46.17843537375448,-757.7286043344911,-46.393591393863396,-609.2663060455783C-46.60874741397231,-460.80400775666544,-10.122300664667941,-332.35271678905804,-1.2909361206534697,-189.22621026652283C7.540428423361002,-46.09970374398762,10.420358364812447,84.6003035689761,6.594595870223429,249.49273308963294C2.7688333756344115,414.38516261028974,-32.300083478759035,641.8937308926302,-24.245511088187577,800.1283668574182C-16.19093869761612,958.3630028222062,47.94154079607928,1040.6530292513637,54.922030213652164,1198.9005488783612C61.90251963122505,1357.1480685053587,26.79109711952509,1589.4302427657963,17.63742541724973,1749.6134846194027C8.48375371497437,1909.7967264730091,2.939570902874955,2091.6022474365673,0,2160L 1920 2160 L 1920 -1080 Z" fill="url(&quot;#SvgjsLinearGradient1737&quot;)"/><path d="M192,-1080C186.9941143271804,-1012.4948730384407,159.75706033396366,-833.3585020512603,161.9646859630823,-674.9692382306442C164.17231159220094,-516.5799744100282,211.99508584465238,-302.5581841320668,205.24575377471177,-129.6644170763037C198.49642170477117,43.229349979459414,124.23608581771397,205.35987772701932,121.46869354343863,362.3933641039346C118.7013012691633,519.4268504808498,174.42935148566343,667.9460952944622,188.64140012905978,812.5365011851878C202.85344877245612,957.1269070759134,214.07900631602496,1077.692186516136,206.74098540381675,1229.9357994482882C199.40296449160854,1382.1794123804405,147.07010555644675,1570.9874786861499,144.6132746558106,1725.9981787781019C142.15644375517448,1881.0088788700539,184.1022124426351,2087.6663631296838,192,2160L 1920 2160 L 1920 -1080 Z" fill="url(&quot;#SvgjsLinearGradient1738&quot;)"/><path d="M384,-1080C377.3438063107127,-978.6556982836415,349.688156090937,-644.2533780601809,344.0628378642761,-471.93418970184933C338.4375196376152,-299.61500134351775,350.09375202905426,-224.76833465409504,350.2480906400345,-46.08486985001055C350.4024292510147,132.59859495407392,334.4986200057455,402.60702630684546,344.9888695301575,600.1665991226577C355.4791190545695,797.7261719384699,414.57712980123466,973.4107344143644,413.1895877865063,1139.2725670448626C411.80204577177795,1305.1343996753608,341.5285487395384,1425.216356079791,336.6636174417873,1595.3375949056472C331.79868614403625,1765.4588337315033,376.1106029069646,2065.889599150941,384,2160L 1920 2160 L 1920 -1080 Z" fill="url(&quot;#SvgjsLinearGradient1739&quot;)"/><path d="M576,-1080C568.6637378033944,-953.435379637905,525.676033945594,-592.603041180935,531.9824268203664,-320.6122778274305C538.2888196951388,-48.62151447392603,618.9032780090977,270.2152093390891,613.8383572486348,551.9445801210267C608.7734364881719,833.6739509029642,507.89929513236143,1101.7547102176995,501.59290225758895,1369.763946864195C495.28650938281646,1637.7731835106906,563.5988170429315,2028.2939911440326,576,2160L 1920 2160 L 1920 -1080 Z" fill="url(&quot;#SvgjsLinearGradient1740&quot;)"/><path d="M768,-1080C774.1036241042177,-985.1037060133739,812.2939478214547,-733.4125019838995,804.6217446253063,-510.622236080243C796.9495414291579,-287.83197017658654,738.8962775547858,15.847333593008017,721.9667808231097,256.7415954219389C705.0372840914337,497.6358572508698,691.5447497878337,712.6492233789222,703.0447642352499,934.7433348933421C714.5447786826661,1156.837446407762,780.1409948801486,1385.096820324015,790.9668675076069,1589.306264508458C801.7927401350653,1793.5157086929012,771.8278112512678,2064.8843774180764,768,2160L 1920 2160 L 1920 -1080 Z" fill="url(&quot;#SvgjsLinearGradient1741&quot;)"/><path d="M960,-1080C962.6106134275126,-997.9339307342614,965.3956971845771,-774.9192362729889,975.6636805650753,-587.6035844055684C985.9316639455735,-400.28793253814797,1037.1873522253543,-135.49456648673927,1021.6079002829889,43.89391120452291C1006.0284483406235,223.2823888957851,886.5910677187003,323.662821157696,882.1869689108833,488.72728174200466C877.7828701030662,653.7917423263134,984.5394382025521,851.0964478188072,995.1833074360866,1034.280674710375C1005.827176669621,1217.4649016019428,951.9140688847713,1400.2127555431407,946.0501843120902,1587.8326430914115C940.1862997394092,1775.4525306396822,957.6750307186817,2064.6387738485687,960,2160L 1920 2160 L 1920 -1080 Z" fill="url(&quot;#SvgjsLinearGradient1742&quot;)"/><path d="M1152,-1080C1157.0973309537412,-968.6468484315589,1194.0481364544498,-624.3548382785489,1182.5839857224466,-411.8810905893532C1171.1198349904435,-199.40734290015754,1092.9666556895572,-10.84972155377966,1083.2150956079809,194.84248613517423C1073.4635355264045,400.5346938241281,1122.4542394136774,600.6633533071639,1124.0746252329877,822.27215554437C1125.695011052298,1043.8809577815762,1088.2831813960076,1301.540658815806,1092.937410523843,1524.495299558411C1097.5916396516784,1747.449940301016,1142.156235087307,2054.082549926402,1152,2160L 1920 2160 L 1920 -1080 Z" fill="url(&quot;#SvgjsLinearGradient1743&quot;)"/><path d="M1344,-1080C1351.6826290165518,-962.2093146118603,1380.106354174016,-582.2814234021517,1390.0957740993101,-373.2558876711623C1400.0851940246043,-164.23035194017288,1414.9918066919458,-22.153621136088105,1403.9365195517648,174.1532143859368C1392.8812324115838,370.46004990796166,1341.3430870609325,594.2405450643272,1323.7640512582238,804.5851254609871C1306.1850154555152,1014.929705857647,1295.0896466118834,1210.3182176760608,1298.4623047355128,1436.2206967658963C1301.8349628591423,1662.1231758557317,1336.4103841225856,2039.3701161276495,1344,2160L 1920 2160 L 1920 -1080 Z" fill="url(&quot;#SvgjsLinearGradient1744&quot;)"/><path d="M1536,-1080C1540.5008800268897,-993.0197738567872,1558.624482227637,-709.6876542298588,1563.0052801613383,-558.1186431407232C1567.3860780950397,-406.54963205158754,1556.5569060226846,-325.07275125806143,1562.2847876022086,-170.58593346518595C1568.0126691817325,-16.09911567231049,1589.0852761664553,222.3578250399359,1597.3725696384815,368.80226361652956C1605.6598631105078,515.2467021931232,1632.4716373697838,576.4372859130459,1612.0085484343658,708.080697994376C1591.5454594989478,839.7241100757061,1489.3957021004342,1004.8716371801781,1474.5940360259742,1158.66273610451C1459.7923699515143,1312.453835028842,1512.9642246586018,1463.9377475577853,1523.1985519876062,1630.827291540367C1533.4328793166105,1797.7168355229487,1533.8664253312677,2071.804548590061,1536,2160L 1920 2160 L 1920 -1080 Z" fill="url(&quot;#SvgjsLinearGradient1745&quot;)"/><path d="M1728,-1080C1732.5285025450783,-958.1018775898928,1761.4408869305812,-617.4657348606067,1755.171015270469,-348.6112655393562C1748.901143610357,-79.7567962181057,1686.031149967123,241.6399335357019,1690.380770039328,533.1268159275032C1694.7303901115329,824.6136983193046,1774.9988640435872,1129.1644981327022,1781.2687357036991,1400.3100288114517C1787.538607363811,1671.4555594902013,1736.8781226172832,2033.3850048019085,1728,2160L 1920 2160 L 1920 -1080 Z" fill="url(&quot;#SvgjsLinearGradient1746&quot;)"/></g></g><defs><linearGradient x1="0.1" y1="0" x2="0" y2="1" id="SvgjsLinearGradient1737"><stop stop-color="#3b2d88" offset="0"/><stop stop-color="#2d2e88" offset="0"/></linearGradient><linearGradient x1="0.1" y1="0" x2="0" y2="1" id="SvgjsLinearGradient1738"><stop stop-color="#4837a5" offset="0"/><stop stop-color="#3738a5" offset="0.1"/></linearGradient><linearGradient x1="0.1" y1="0" x2="0" y2="1" id="SvgjsLinearGradient1739"><stop stop-color="#5643c1" offset="0"/><stop stop-color="#4345c1" offset="0.2"/></linearGradient><linearGradient x1="0.1" y1="0" x2="0" y2="1" id="SvgjsLinearGradient1740"><stop stop-color="#7060ca" offset="0"/><stop stop-color="#6062ca" offset="0.3"/></linearGradient><linearGradient x1="0.1" y1="0" x2="0" y2="1" id="SvgjsLinearGradient1741"><stop stop-color="#8b7dd4" offset="0"/><stop stop-color="#7d7dd4" offset="0.4"/></linearGradient><linearGradient x1="0.1" y1="0" x2="0" y2="1" id="SvgjsLinearGradient1742"><stop stop-color="#a59bde" offset="0"/><stop stop-color="#9b9cde" offset="0.5"/></linearGradient><linearGradient x1="0.1" y1="0" x2="0" y2="1" id="SvgjsLinearGradient1743"><stop stop-color="#bfb8e8" offset="0"/><stop stop-color="#b8b9e8" offset="0.6"/></linearGradient><linearGradient x1="0.1" y1="0" x2="0" y2="1" id="SvgjsLinearGradient1744"><stop stop-color="#dad5f1" offset="0"/><stop stop-color="#d5d5f1" offset="0.7"/></linearGradient><linearGradient x1="0.1" y1="0" x2="0" y2="1" id="SvgjsLinearGradient1745"><stop stop-color="#f4f3fb" offset="0"/><stop stop-color="#f3f3fb" offset="0.8"/></linearGradient><linearGradient x1="0.1" y1="0" x2="0" y2="1" id="SvgjsLinearGradient1746"><stop stop-color="#ffffff" offset="0"/><stop stop-color="#ffffff" offset="0.9"/></linearGradient><clipPath id="SvgjsClipPath1747"><rect width="1920" height="1080"/></clipPath></defs></svg>